<svg xmlns="http://www.w3.org/2000/svg" viewBox="0 0 1819.15 790.04"><g id="Capa_2" data-name="Capa 2"><g id="Capa_1-2" data-name="Capa 1"><path d="M889.17.66c-.38.21-9.35,1.3-19.81,2.45-17.94,1.85-57,10-60,12-.73.45,5.68,2.64,14.51,4.88C838.8,23.8,840.13,24.5,846,30.55a61.8,61.8,0,0,1,7.63,8.93l1.2,2.56q-10.87.36-21.75.89t-21.74,1.19q-6.29-2.17-12.61-4.29c-6.91-2.42-13.82-4.19-15.33-4.17-4.16.2-20.5,15-24.55,22.44-4.94,8.52-4.78,20.47,0,29.65,6,11,29.84,32.3,34.2,30.32.87-.27,5.8-5.47,11-11.34q4.81-5.39,9.7-10.76,8.64-.39,17.26-.67t17.25-.48l.81,7c1.37,12,.66,12.95-12.43,17.06-18,5.82-40.67,16.86-51.68,25-27.36,20.32-27.63,40.19-4.4,62.62,3.68,3.48,8.38,7.69,10.35,9.33,3.55,2.72,3.56,2.92.84,4.05-1.61.63-13.39,2.33-26,3.94-111.45,13.95-239.85,58.61-347.42,127.5q-11,7-21.85,14.2-7-.68-14.13-1.28c-18.7-1.64-25-1.59-57.78,2.41-15.25,1.95-32.3,4.3-37.66,4.92-14.29,1.41-42,.07-54.95-2.85q-5.72-1.23-11.45-2.4,4.95,9.66,9.92,19.32C240.84,406.08,242,411,246.78,443.25c2.19,14.22,5.54,25.61,9.86,34.21l2.72,5.24q-6.54,7.69-12.93,15.45c-24.75,30.13-37.36,51.08-50.8,83.09q-4.65,11.24-9,22.49l-4.1.67c-2.2.38-12.29,1.78-22.55,3.5-26.68,4.34-56.38,13.4-87.51,27.39C46.26,646.7,2,672.74.05,676c-.56.85,3.33,1.19,8.7.95C35,675.77,69.39,679.07,124,692.23c19.24,4.75,40.13,10.25,46.61,11.88,11.36,2.87,12,3.27,18.27,10.15,7.32,8,11.37,9.92,20.32,10,7.73-.1,16-2.53,26.07-7.71,4.57-2.28,9.15-4.27,10.23-4.46s34.57,5,72.5,14.63q34.57,8.67,67.58,19.63c.36,1.59.72,3.17,1.09,4.75,4.12,18,20.73,26.27,39.33,20.76l7.67-2.19q13.05,4.5,25.81,9.35c24.38,9.39,25.27,10.08,27.37,7.91,3.45-4.18,65.64-46,113.34-68,103.5-49.27,194.81-68.71,295.31-70.69,68.59-.73,135.37,7.4,206.57,27.11,71,20,146.4,51.65,227.27,105.48,7.32,4.87,14,9.1,14.79,9.22s11.93-5,24.76-11.08c24.52-11.46,29.51-12.67,33.31-10.39,9.3,5.63,26.45,5.34,34.47-.63,6.06-4.64,7.64-7.2,9.72-16.11.57-2.54,1.12-5.08,1.67-7.62q14.52-4.43,29.34-8.43c16.32-4.5,47-11.91,68.45-16,25.79-4.89,40.13-6.24,41.72-5.4,1.33.79,7.07,4.16,12.78,7.62,12.07,7.45,19.91,9.78,27.79,8.19,6.51-1.3,14.58-8.47,19.16-17.46l3.41-6.28q40.49-11.48,82.62-20.19c46.42-9.61,85.85-14.71,85.84-15-.17-.31-8.21-4.4-17.88-8.78s-37.61-18.05-62.31-29.1c-44.33-19.77-66.67-26.2-82.8-28.67-4.5-.55-8.8-1.55-9.67-2.21s-3.46-6.5-6.29-13.19C1628.94,562,1612.51,534.84,1588,505q-7.87-9.47-15.94-18.82,4.26-7.95,8.5-15.9c9.23-17.55,11.51-24.76,14.92-55.3,2.14-18.59,5.47-34.79,8.92-40.77,1-1.73,1.55-3.38,1.24-3.55s-8.78-.46-18.54-.32c-16.57.41-19.28,0-41.75-4.9-49.22-10-55.44-10-71-10.69a370.63,370.63,0,0,0-37,1.53q-10.59.93-21.08,2-10.42-6.71-21-13.23c-89.36-54.9-197.23-98.5-332.13-121-12.07-2.09-22.69-3.91-23.47-4.49-.61-.46,1.24-4.2,4.49-8.3,19.79-24.91,14.87-51.69-17-73.14-12.5-8.33-23.8-13.41-43.85-19.48-8.19-2.52-14.14-4.86-14.8-6s-1.36-6-1.52-10.88l-.18-8.91q9,.21,18,.53t18,.84q7,3.69,13.89,7.47c7.6,4.16,14.65,7.67,15.72,7.76,1.24.1,6.07-1.89,10.62-4.39C1078.81,86.32,1081,67,1045.5,39.72c-4.4-3.31-8.87-6.19-9.8-6.27s-5.08,2.2-9,5q-3.86,2.61-7.69,5.24-10.43-.6-20.84-1.06t-20.85-.78c.09-2,.19-4,.28-6,.27-5.88.43-6.11,11.88-12.33,6.41-3.57,11.73-6.65,11.75-6.95.05-.8-13.76-4.86-29-8.28C948.81,2.78,893.17-1.74,889.17.66Zm-98.1,270.59c.24,10,2.45,14.63,10.89,23.87,3.43,3.73,5.71,7.07,5.27,7.4s-6.68,0-13.92-.75c-25.33-2.31-39.06-2.11-60.1.77-32.34,4.43-51.55,12.61-67.1,27.45-13.69,13.12-18.83,27.57-16.72,45.31,1.65,16.37,8.89,25.14,39.58,56.32,11.3,11.5,22.67,24.35,25.71,28.31,13.89,18.24,20.39,37.5,19.68,55.23-.11,2.55.32,2.78,3.41,2.29,5.4-.89,20.73-6.89,29.69-11.43,17.12-8.76,29.41-19.9,36.53-33.62,5.76-11,7.25-18.1,7-34.24-.21-10.72.25-15.37,1.9-17.71,7.05-10.61,17.78-13.77,26.62-7.95,11.69,7.77,12.58,26.26,3.33,46-16.43,35-53.22,60.51-104.54,77.82-15.43,5-51.1,11.59-68.41,12.77-39.93,2.07-79.33-2.23-105.21-13.62-14.8-6.55-29.95-19.46-33.34-29.09-1.55-4.43-.25-12.19,2.57-14.42,3.57-3,9.12-4.24,14.46-3.25,9.13,1.64,20.63,10.84,26.27,20.83,12.72,22.24,39.93,29.22,81.74,24.52,6.68-.77,14.73-1.87,17.79-2.53,4.72-1,5.31-1.36,4.21-2.77a180.6,180.6,0,0,1-17.7-23.42c-3.65-6.35-5.27-12.13-13.37-47.22q-4.62-20-9.23-40-3-3.93-6-7.85c-17.48-23-43.82-36.67-74.64-37.69-20.47-.68-30,.77-54.84,9.13-18.4,6.34-22.93,8.46-34,14.95-7,4.19-14.69,8.73-17.17,10l-4.28,2.2q-1.77-3.29-3.56-6.55c-9.6-18.05-9.74-18.31-8.23-20.09,1.68-2.71,68.06-39.62,104.5-54.65,77.73-34.61,173.94-58.09,228.68-62.84q11.14-1.11,22.31-2Zm351.48,10.52c60.14,13.83,115,33.15,159.27,53.66,41.11,18.79,84.17,45,85.83,48.38,1.09,1.95-9.81,25.27-12,25.71-.72.14-5.16-2.92-9.77-6.86-11-9.3-19.51-14.69-31.8-20-53.26-23.43-113.66-9.21-142.8,30.78q-2.83,3.94-5.65,7.9l-9.87,42.37c-9.49,41.33-10,42.65-14.44,49.3-2.56,3.82-7.18,9.62-10.13,13s-5.23,6.39-5,6.74c1,1.18,27,4.16,38.34,4.78,32.48,1.41,52.3-5.58,64.78-24.77,9.73-14.74,19.76-21.92,31.22-22.35,5.12-.15,5.82,0,8.69,2.47,5.29,4.51,6.13,10,2.74,17.42-11.59,25.18-51.31,38.83-102.16,41.28-58.49,2.62-118.59-12-162.32-40.86-10-6.68-25.47-20.36-32.22-28.59-11.9-14.79-19.89-32.85-20.15-47.7-.2-10.63,2-16,9-20.08,10.63-6.35,25.68-2.1,32.12,8.87,1.69,3,2,7.12,1.34,19.71-.89,17.71.25,24.53,5.9,35.07,8,15.18,25.2,24.78,57.52,34.37l3.91,1.25q.74-6.42,1.46-12.83c3.27-25,8-34.76,55.06-77.46,23.41-20.65,31.36-30.95,32.67-46.16,2.83-28.79-15.28-52.5-53.49-65.95-6.88-2.36-15.42-4.37-29-6.33-21.48-3-37.71-3.29-60.86-.94-8.2.92-15.38,1.43-16,1.08s2-3.75,5.65-7.65c7.95-8.53,11.45-16.42,10.83-25.12-.31-3.45.17-6.82.86-7.36C1033.62,263.28,1098.9,271.13,1142.55,281.77Zm404.91,235.79c8.06,10.07,18.4,24.36,23.14,31.72,17.54,26.39,32,58.69,27.61,56.78-1.1-.54-6.92-4-13.1-8.06-13.33-8.46-24.21-11.86-34.17-10.94-10.13.8-33,7.82-49.07,15.26-19.81,9-37.13,20.46-61.92,41.23-11.34,9.66-21.25,18.12-22.24,18.83-1.62,1-1.32,1.31,4.14,3.57a119,119,0,0,0,30.67,8.34c10.79,1.52,11.46.5,58.46-8.67,9-1.62,12.49-1.3,14.68,1.14,6.2,7.4-25.45,18.41-53,20.75-28.07,2.38-50.72-4.68-85.9-24.32C1372,655,1368.86,653.1,1363,647.77c-11.4-10.55-19.65-20-25.37-29.82-13.91-23.48-9.63-42.08,17.08-58.5,11.33-7.05,18.11-9.49,25.66-9.56,8.41-.22,13.93,2.62,14.06,6.89,0,2.32-1.74,3.93-9.78,8.66-16.37,9.9-22.83,16.57-28.14,28.21s-5.25,15.49.74,25.89c3.15,5.39,14.66,19.19,15.72,18.75a44.69,44.69,0,0,0,4.5-4.69c8.69-9.5,22.37-16,49.66-21.77,50.68-9.89,58.95-10.52,73.08-17.38a179.76,179.76,0,0,1,17.65-7.07c20-6.69,32.71-18.47,32.34-31.6-.17-12.5-11.91-29.17-31.51-43.71-4.57-3.42-8.26-6.86-8.32-7.7-.14-2,18-7.44,20.43-6C1531.92,499,1539.52,507.64,1547.46,517.56ZM312.36,495.72c3.54,1,6.7,2.39,7,2.92s-2.63,3.47-6.34,6.54c-12.19,10.14-22.54,22.08-27.19,31.14-10.34,20.09-2.84,34,21.51,44.23C347.14,598,349.75,598.41,396.86,608c11.78,2.51,24.8,6,29.08,7.51,10.74,3.59,21.93,10.54,26.7,16.36,2.13,2.64,4.57,4.47,5.27,4.14,2.53-1.24,12.14-14.62,14.27-19.81,6.62-16.63.37-33.65-19.54-48.46-7.76-5.62-12.44-12.83-10.34-16.3,2.18-3.94,4.92-4.41,13.48-2.47,9.79,2.26,24.67,11.86,31.44,19.89,14.12,17,9.34,39-11.2,65.25-12.62,16.38-14.13,17.63-31.86,27.2-34.85,19-63.19,27.26-91.19,24.52-11.79-1.21-33.54-6.59-42.24-10.53-5.86-2.72-9.7-7.74-7.55-10.24,3.42-3.87,10-3.69,40.69,4.76,8.54,2.36,19,4.59,23.58,4.89,13.66.85,30.2-2.67,50.54-10.22,17.19-6.24,17.18-6,5.22-9.2-22.09-5.6-38.11-13.6-60.46-30.61-28.61-21.55-37.32-26.59-52.24-33.16-30.36-12.78-43.35-12.09-66.57,3.28-7.43,5-10.48,6.65-11,5.9-1.8-2.32,26.4-52.48,54.8-89.13,10.22-13.4,14.3-17.64,16-17.69A40.56,40.56,0,0,1,312.36,495.72Z"/></g></g></svg>