<?xml version="1.0" standalone="no"?>
<!DOCTYPE svg PUBLIC "-//W3C//DTD SVG 20010904//EN"
 "http://www.w3.org/TR/2001/REC-SVG-20010904/DTD/svg10.dtd">
<svg version="1.0" xmlns="http://www.w3.org/2000/svg"
 width="1280.000000pt" height="684.000000pt" viewBox="0 0 1280.000000 684.000000"
 preserveAspectRatio="xMidYMid meet">
<g transform="translate(0.000000,684.000000) scale(0.100000,-0.100000)"
fill="#000000" stroke="none">
<path d="M6309 6836 c-2 -2 -49 -12 -104 -21 -94 -16 -301 -77 -318 -94 -4 -4
29 -30 75 -57 78 -46 85 -53 115 -116 18 -36 35 -78 39 -92 l6 -26 -117 0
-117 0 -66 51 c-36 29 -72 52 -80 53 -22 1 -116 -132 -142 -202 -31 -80 -37
-199 -16 -295 26 -116 149 -349 175 -332 5 2 35 50 66 105 l58 101 96 -3 96
-3 3 -70 c5 -120 1 -130 -74 -165 -103 -50 -236 -144 -303 -215 -166 -178
-184 -374 -58 -620 20 -38 46 -84 57 -102 20 -30 20 -32 3 -41 -10 -5 -82 -12
-159 -15 -680 -30 -1485 -179 -2258 -417 l-158 -49 -77 67 c-101 90 -137 113
-326 217 -88 48 -185 104 -215 123 -80 52 -220 195 -277 284 l-51 77 -5 -217
c-6 -230 -13 -279 -86 -582 -32 -134 -50 -249 -54 -345 l-2 -59 -120 -66
c-233 -127 -373 -230 -563 -414 l-133 -129 -24 19 c-13 10 -71 59 -130 108
-153 128 -334 244 -535 345 -169 84 -469 206 -490 199 -6 -2 9 -32 33 -68 118
-176 253 -439 464 -899 74 -163 158 -340 185 -394 47 -95 49 -102 52 -195 4
-108 17 -149 66 -206 43 -48 100 -81 180 -102 36 -10 71 -22 78 -27 7 -5 175
-250 373 -544 l361 -535 -13 -46 c-50 -174 29 -334 190 -382 l66 -20 154 -209
c148 -200 155 -209 180 -200 46 15 711 110 1176 168 1018 127 1822 181 2715
181 1215 0 2366 -81 4087 -286 78 -9 148 -14 155 -11 8 3 72 101 142 218 134
222 162 259 200 259 92 0 212 95 240 189 21 72 20 102 -5 188 l-22 73 157 232
c87 128 246 365 354 526 131 193 204 293 217 296 11 2 58 11 105 20 100 18
153 51 188 114 29 52 39 159 23 257 l-10 70 319 699 c176 385 318 701 317 703
-2 1 -53 -27 -113 -63 -60 -35 -239 -130 -399 -209 -287 -142 -426 -224 -517
-304 -25 -23 -51 -41 -58 -41 -6 0 -43 31 -83 68 -162 153 -345 280 -575 401
l-147 76 -6 180 c-7 198 -19 271 -94 551 -45 171 -75 328 -75 397 0 20 -2 37
-4 37 -2 0 -45 -40 -94 -89 -83 -84 -98 -94 -228 -156 -285 -137 -321 -157
-407 -218 -48 -35 -139 -109 -201 -165 l-114 -101 -150 44 c-635 186 -1326
307 -2152 375 -74 7 -139 15 -144 20 -4 4 5 43 22 87 103 269 53 527 -138 713
-75 73 -141 115 -256 165 -47 21 -81 42 -85 53 -4 11 -9 59 -11 108 l-3 89
100 3 100 2 80 -65 c44 -36 85 -65 91 -65 7 0 33 24 57 53 189 222 183 416
-19 653 -25 29 -50 54 -55 54 -5 0 -26 -26 -46 -57 l-39 -58 -112 -3 -112 -3
0 60 c0 59 1 61 60 129 33 39 60 73 60 76 0 8 -74 40 -155 68 -124 42 -415 85
-436 64z m-637 -2656 c-4 -100 7 -148 56 -247 20 -40 33 -75 30 -78 -3 -3 -43
5 -89 19 -161 46 -248 60 -384 59 -209 0 -338 -46 -455 -163 -103 -103 -156
-233 -167 -411 -11 -163 20 -266 190 -630 63 -134 128 -280 145 -324 77 -203
104 -403 77 -577 -4 -25 -1 -28 23 -28 42 0 165 37 237 71 138 65 239 164 301
294 50 104 65 174 73 335 5 107 11 153 24 175 56 100 132 124 192 61 79 -84
81 -269 5 -461 -134 -340 -433 -572 -851 -662 -125 -27 -409 -24 -542 5 -307
68 -588 223 -744 412 -90 108 -163 280 -163 382 0 47 27 116 51 128 31 17 71
11 105 -15 58 -44 117 -166 135 -278 40 -249 221 -400 541 -452 51 -8 113 -15
137 -15 37 0 42 2 36 18 -36 81 -76 201 -92 267 -16 70 -18 130 -18 490 l0
410 -28 90 c-81 264 -228 458 -419 553 -127 64 -188 77 -358 76 -126 -1 -158
-5 -240 -28 -52 -15 -109 -30 -127 -33 l-31 -5 -6 74 c-15 203 -15 206 -2 217
17 14 491 130 736 180 530 107 1142 180 1485 177 l140 -1 -3 -85z m2213 54
c385 -30 746 -78 1050 -140 281 -58 594 -143 612 -167 11 -14 2 -271 -10 -283
-4 -4 -38 8 -75 28 -88 47 -151 68 -237 77 -370 41 -717 -247 -850 -703 l-25
-90 2 -435 c3 -424 2 -438 -19 -513 -12 -43 -36 -110 -52 -150 -17 -39 -28
-74 -26 -77 10 -10 209 21 293 45 242 70 368 199 412 419 35 170 87 269 163
310 34 18 39 19 64 5 46 -25 65 -74 60 -155 -16 -275 -258 -543 -632 -701
-429 -182 -929 -144 -1286 97 -82 55 -209 177 -264 254 -98 138 -164 314 -172
462 -6 106 8 161 55 206 72 70 179 40 232 -63 14 -28 19 -69 23 -195 6 -177
19 -244 69 -343 71 -142 209 -221 464 -265 l31 -6 -5 129 c-9 253 24 352 291
861 131 249 166 368 153 519 -24 288 -171 477 -426 546 -46 12 -102 18 -190
18 -139 0 -242 -17 -389 -63 -52 -17 -98 -28 -102 -25 -4 2 11 39 32 81 46 92
63 174 54 260 -4 34 -3 68 1 74 9 15 419 5 699 -17z m2959 -795 c78 -45 184
-111 236 -147 188 -128 390 -306 359 -316 -8 -2 -53 -7 -102 -9 -105 -6 -178
-37 -231 -99 -54 -62 -160 -243 -230 -390 -86 -180 -151 -366 -235 -669 -38
-140 -73 -262 -77 -273 -7 -17 -4 -18 41 -11 79 11 166 42 234 82 74 44 81 52
333 385 48 63 70 80 93 72 67 -26 -76 -297 -244 -464 -170 -169 -351 -228
-665 -218 -131 5 -160 9 -219 31 -116 45 -205 97 -276 163 -172 159 -191 348
-60 604 55 110 92 160 141 192 54 37 98 35 112 -3 7 -21 1 -43 -37 -120 -77
-159 -101 -246 -101 -374 -1 -128 12 -163 87 -232 39 -36 165 -110 171 -101 2
2 8 30 15 62 27 124 99 242 256 421 290 329 331 382 393 512 19 42 55 110 79
152 93 162 121 330 73 439 -45 105 -167 184 -325 213 -37 7 -69 19 -72 26 -7
17 78 153 96 153 8 0 78 -37 155 -81z m-8555 -38 c17 -26 31 -53 31 -59 0 -6
-26 -18 -57 -27 -102 -30 -200 -81 -257 -135 -126 -119 -135 -276 -28 -490
177 -352 190 -371 460 -677 68 -77 143 -167 167 -199 60 -80 114 -191 128
-264 6 -33 17 -60 23 -60 22 0 133 81 164 120 99 125 104 306 15 522 -35 83
-44 168 -20 191 26 27 45 20 96 -32 58 -60 131 -206 155 -306 49 -210 -45
-399 -276 -554 -143 -96 -159 -101 -317 -108 -312 -13 -538 61 -708 231 -72
72 -187 235 -224 316 -25 55 -28 118 -5 127 37 14 73 -25 234 -259 45 -65 104
-138 133 -164 86 -77 210 -130 377 -159 141 -25 140 -26 69 57 -131 152 -208
300 -289 558 -103 329 -136 417 -202 550 -134 267 -208 329 -395 330 -60 0
-83 4 -83 13 0 28 342 283 619 461 101 65 137 83 147 75 7 -6 27 -32 43 -58z"/>
</g>
</svg>
