<svg xmlns="http://www.w3.org/2000/svg" viewBox="0 0 1391.55 1360.89"><g id="Capa_2" data-name="Capa 2"><g id="Capa_1-2" data-name="Capa 1"><path d="M1391.55,885.16c-16.36,40.62-47.18,54.72-89.9,54.65q-604.43-1-1208.86-.2c-35.07,0-68.89-5.27-81.8-41.37-14-39.09-18.17-82,9-117.58,10.21-13.37,32.6-23.64,49.89-24.34,67.73-2.77,135.65-.83,203.49-1.39,17.09-.15,31.5,5.9,27.89,22.88-1.9,9-19.29,20.39-30,20.74-60.58,2-121.27.83-181.91,1C54,799.7,48.49,806,48.26,844.45,48,888,51.65,893.1,88.17,893.11q609.06.24,1218.12,0c36.37,0,40.31-5.37,40.07-48.56-.21-38.9-5.41-45-40.78-45q-337.68-.17-675.36-.08c-9.25,0-20.09,2.64-27.32-1.26-8.31-4.48-17.44-14.36-18.54-22.89-.74-5.75,10.7-15.74,18.7-19.2,7.82-3.39,18.19-1,27.44-1,223.06,0,446.13.9,669.18-.8,42.86-.33,73.23,12,91.87,50.63Z"/><path d="M695.82,608.09q-280.64,0-561.28,0c-61.72,0-84.08-20.55-85-82.28-1.39-93.3,23.25-179.53,68.94-261.32C187.78,140.43,297.43,70.85,429.35,36c190.44-50.35,381.95-48.78,571,10.65,79.38,25,151.42,65.09,208.16,126.87C1302.73,276.14,1349.39,397.9,1344,537.92c-1.88,48.7-25.66,70-74.52,70.09Q982.63,608.28,695.82,608.09Zm1.41-44.38H869.89c130.52,0,261-.21,391.56.19,22.28.07,37.5-3.34,38-31.16,2.49-133.26-45.08-246.61-137.25-340.89-48.84-50-110.44-81.45-176.77-102.59-157-50-316.9-54.3-477.82-24.79C378.4,88.17,263,136.85,183.32,249.92,125.85,331.52,95,420.33,95.24,520c.1,41.27,2.6,43.71,43.93,43.72Q418.2,563.75,697.23,563.71Z"/><path d="M697,1125q282.16,0,564.34,0c58.93,0,82.25,23.15,82.85,81.66.12,12.33.27,24.66-.09,37-2.07,71.14-48,116.88-119.28,117q-357.72.57-715.44.16c-112,0-224.09.21-336.13-.08-75.41-.19-119.8-45.08-123-119.76-3.9-90.76,12.46-118.57,113.28-116.83C341.25,1127.21,519.12,1125,697,1125Zm.63,191.44h502.67c78.13,0,98.75-20.49,98.69-98,0-46.81-2.16-49-48.47-49q-450.24,0-900.49,0c-72,0-143.93-.75-215.85.72-12.36.25-31.41,6.71-35.68,15.8-30.38,64.56,13,130.45,84.12,130.49Q440.08,1316.58,697.58,1316.44Z"/><path d="M1195.71,1078.32c-11.37-6.55-32.73-15.79-50.37-29.73-27.18-21.46-36.88-22.77-62.89.8-42.51,38.54-79.83,38.5-122.45-.13-25.83-23.41-37-23.42-62.47-.06-41.81,38.41-80.81,38.5-122.49.27-25.84-23.69-36.75-23.77-62.48-.46-42.89,38.86-80.09,39-122.47.63-26.2-23.75-37.16-23.89-62.48-.81-42.7,38.92-80.1,39.23-122.48,1-27.21-24.54-36.77-24.38-64.6,1.07-37.94,34.7-78.8,35.93-115.95,3.5-31.05-27.1-46.8-28.85-81.39-7.46-11.29,7-20.46,18-32.35,23.21-8.54,3.74-24,4.92-29-.11-5.47-5.48-6.8-22.08-2.43-29.27,35-57.48,121.48-70,171.06-24.63,22,20.18,39.36,19.79,60.93-.41,43.83-41,78.55-40.43,123.66-.58,27,23.89,35.1,23.75,62.58-1.07,42.61-38.47,78.13-38.39,121.69.28,27.59,24.49,35.87,24.56,62.66.49,43.39-39,78.87-39.35,121.75-1.31,29.09,25.82,36.14,25.81,64.81-.1,41.12-37.15,78-37.3,119.49-.48,30.21,26.78,36.54,26.69,67.13-1,37.81-34.17,76.32-35.54,112.7-4,35.16,30.46,47,31.56,86.43,6.41,11.21-7.15,20.44-18.07,32.32-23.22,7.62-3.3,23.44-2.5,26.67,2.36,4.81,7.26,6.3,24,1.32,29.28C1285.89,1053.5,1251.07,1074.33,1195.71,1078.32Z"/><path d="M442.6,793.84c40.1-43,75.5-82.76,113.17-120.21,9.56-9.49,26.37-16.45,39.89-16.51,222-1,444.07-.64,666.1-.85,17.6,0,36.32.91,35.93,22.89-.38,22.41-20,21.58-37,21.57q-317.62-.16-635.27-.18c-20.68,0-35.54,2.42-51.47,22.19-32.69,40.57-72.84,75.14-109.9,112.19-14.46,14.47-28.42,14-42.51-.75-39.61-41.45-79-83.15-119.48-123.7-6.14-6.15-17.85-9.22-27.07-9.4-48.3-.91-96.62-.68-144.93-.3-16.85.13-33.54-2.18-33.29-22.39.25-19.92,16.83-22.31,33.73-22.14,44.19.47,88.93,4.44,132.45-1,47.82-6,74,20.83,101,50.76C389.12,734,414.15,762.06,442.6,793.84Z"/><path d="M1077.25,212.76c-15.72,11.76-27.25,25.55-32.92,23.46-9.38-3.45-19.48-16.68-20.53-26.71-.66-6.34,14-19.16,22.81-20.11C1053.89,188.62,1062.59,200.93,1077.25,212.76Z"/><path d="M504.42,211.6c14.3-10.93,23.43-23.15,30.73-22.13,8.58,1.19,22.65,15.05,21.61,21.29-1.66,9.93-12.46,21.44-22.23,25.51C530.06,238.14,518.87,223.9,504.42,211.6Z"/><path d="M428,164.48c-14.57,9.93-23.53,20.78-30.89,19.79-8.27-1.11-15.11-12.91-22.57-20.06,7.93-7.65,14.92-19.4,24.12-21.5C404.77,141.31,414.06,153.61,428,164.48Z"/><path d="M890.11,162.14c-12.91,10.76-21.5,23-27.82,22-9.32-1.57-17-12.66-25.43-19.69,7.73-7.75,14.43-19.5,23.55-21.85C866.63,141,876.25,152.47,890.11,162.14Z"/><path d="M753.58,262.82C738,273.36,728.2,284.76,721.8,283.11c-8.78-2.26-18.93-13.6-20.83-22.66-1.09-5.2,13-19.2,20.18-19.09C729.91,241.48,738.52,252.18,753.58,262.82Z"/><path d="M983.41,262.88c-14.58,10-23.41,20.84-30.83,19.95-8.23-1-15.18-12.66-22.68-19.68,7.85-7.69,14.73-19.45,23.9-21.64C959.94,240.05,969.33,252.16,983.41,262.88Z"/><path d="M682.34,92.33c4.57,9.28,13.6,19.22,12.36,27.65-1.07,7.25-14.53,18.41-21.27,17.6-7.84-1-20-13.13-19.94-20.31.11-8.63,11.14-17.14,17.45-25.7Z"/></g></g></svg>